<svg width="101" height="101" viewBox="0 0 101 101" fill="none" xmlns="http://www.w3.org/2000/svg">
<circle cx="50.9531" cy="50.5586" r="49.5" stroke="#000405" stroke-opacity="0.75"/>
<path d="M76.9313 68.7214C83.7026 68.7214 89.2001 63.2649 89.2001 56.5235C89.2001 49.7821 83.7026 44.3256 76.9313 44.3256C70.1601 44.3256 64.6625 49.7821 64.6625 56.5235C64.6625 63.2649 70.1601 68.7214 76.9313 68.7214Z" fill="#000405" fill-opacity="0.85" stroke="#000405" stroke-width="1.58885"/>
<path d="M41.4694 83.6382L41.3831 84.5109H42.26H58.8132H59.5509L59.6055 83.7753L62.4704 45.1788L62.5338 44.3256H61.6782H46.08H45.3603L45.2894 45.0418L41.4694 83.6382Z" fill="#000405" fill-opacity="0.85" stroke="#000405" stroke-width="1.58885"/>
<path d="M45.5103 40.1393L45.4358 41.0021H46.3018H54.8392H55.5838L55.632 40.2591L57.1096 17.4521L57.1644 16.6063H56.3168H48.272H47.5432L47.4805 17.3323L45.5103 40.1393Z" fill="#000405" fill-opacity="0.65" stroke="#000405" stroke-width="1.58885"/>
<path d="M22.4044 55.9189L22.318 56.7916H23.1949H39.7481H40.4858L40.5404 56.056L43.4054 17.4595L43.4687 16.6063H42.6131H27.0149H26.2952L26.2243 17.3225L22.4044 55.9189Z" fill="#000405" fill-opacity="0.65" stroke="#000405" stroke-width="1.58885"/>
</svg>
